HIERARCHY
ROOT Hips
{
	OFFSET -0.638470 1.435053 0.000000
	CHANNELS 6 Xposition Yposition Zposition Xrotation Yrotation Zrotation
	JOINT Bip01_Pelvis
	{
		OFFSET 0.000000 0.000000 -0.000000
		CHANNELS 6 Xposition Yposition Zposition Xrotation Yrotation Zrotation
		JOINT BN_Tail_01
		{
			OFFSET -0.251828 0.158051 0.002214
			CHANNELS 6 Xposition Yposition Zposition Xrotation Yrotation Zrotation
			JOINT BN_Tail_02
			{
				OFFSET -0.055252 -0.292920 0.029759
				CHANNELS 6 Xposition Yposition Zposition Xrotation Yrotation Zrotation
				JOINT BN_Tail_03
				{
					OFFSET -0.063462 -0.295802 -0.009279
					CHANNELS 6 Xposition Yposition Zposition Xrotation Yrotation Zrotation
					JOINT BN_Tail_04
					{
						OFFSET -0.122777 -0.229376 -0.051218
						CHANNELS 6 Xposition Yposition Zposition Xrotation Yrotation Zrotation
						End Site
						{
							OFFSET 0.147049 -0.218130 -0.033260
						}
					}
				}
			}
		}
		JOINT Bip01_Spine
		{
			OFFSET 0.231004 0.014429 0.000014
			CHANNELS 6 Xposition Yposition Zposition Xrotation Yrotation Zrotation
			JOINT Bip01_R_Thigh
			{
				OFFSET -0.228734 -0.014440 0.259823
				CHANNELS 6 Xposition Yposition Zposition Xrotation Yrotation Zrotation
				JOINT Bip01_R_Calf
				{
					OFFSET 0.149708 -0.688047 0.023072
					CHANNELS 6 Xposition Yposition Zposition Xrotation Yrotation Zrotation
					JOINT Bip01_R_Foot
					{
						OFFSET -0.223912 -0.555148 -0.049855
						CHANNELS 6 Xposition Yposition Zposition Xrotation Yrotation Zrotation
						JOINT Bip01_R_Toe0
						{
							OFFSET 0.205156 -0.190076 0.052833
							CHANNELS 6 Xposition Yposition Zposition Xrotation Yrotation Zrotation
							End Site
							{
								OFFSET 0.000018 0.284621 0.000147
							}
						}
					}
				}
			}
			JOINT Bip01_L_Thigh
			{
				OFFSET -0.233275 -0.014388 -0.259860
				CHANNELS 6 Xposition Yposition Zposition Xrotation Yrotation Zrotation
				JOINT Bip01_L_Calf
				{
					OFFSET 0.103196 -0.696667 -0.018948
					CHANNELS 6 Xposition Yposition Zposition Xrotation Yrotation Zrotation
					JOINT Bip01_L_Foot
					{
						OFFSET -0.245133 -0.546127 0.049664
						CHANNELS 6 Xposition Yposition Zposition Xrotation Yrotation Zrotation
						JOINT Bip01_L_Toe0
						{
							OFFSET 0.205140 -0.190098 -0.052814
							CHANNELS 6 Xposition Yposition Zposition Xrotation Yrotation Zrotation
							End Site
							{
								OFFSET 0.000006 0.284621 -0.000316
							}
						}
					}
				}
			}
			JOINT Bip01_Spine1
			{
				OFFSET 0.419549 0.010961 -0.013086
				CHANNELS 6 Xposition Yposition Zposition Xrotation Yrotation Zrotation
				JOINT Bip01_Spine2
				{
					OFFSET 0.408347 0.028529 -0.012770
					CHANNELS 6 Xposition Yposition Zposition Xrotation Yrotation Zrotation
					JOINT Bip01_Neck
					{
						OFFSET 0.338811 0.285813 0.004795
						CHANNELS 6 Xposition Yposition Zposition Xrotation Yrotation Zrotation
						JOINT Bip01_Head
						{
							OFFSET 0.358737 0.023694 0.007412
							CHANNELS 6 Xposition Yposition Zposition Xrotation Yrotation Zrotation
							JOINT BN_Eyebrow_L
							{
								OFFSET 0.459189 -0.112929 -0.207698
								CHANNELS 6 Xposition Yposition Zposition Xrotation Yrotation Zrotation
								End Site
								{
									OFFSET 0.133227 0.345337 0.007912
								}
							}
							JOINT BN_Eyebrow_R
							{
								OFFSET 0.447721 -0.112098 0.231818
								CHANNELS 6 Xposition Yposition Zposition Xrotation Yrotation Zrotation
								End Site
								{
									OFFSET 0.133492 0.345318 -0.002240
								}
							}
							JOINT BN_Ear_L_01
							{
								OFFSET 0.142448 0.104846 -0.170427
								CHANNELS 6 Xposition Yposition Zposition Xrotation Yrotation Zrotation
								JOINT BN_Ear_L_02
								{
									OFFSET -0.083690 -0.238753 -0.034438
									CHANNELS 6 Xposition Yposition Zposition Xrotation Yrotation Zrotation
									End Site
									{
										OFFSET -0.126318 0.144229 -0.168626
									}
								}
							}
							JOINT BN_Mouth_01
							{
								OFFSET -0.020845 -0.180430 -0.000206
								CHANNELS 6 Xposition Yposition Zposition Xrotation Yrotation Zrotation
								End Site
								{
									OFFSET 0.245558 0.277008 0.006107
								}
							}
							JOINT BN_Ear_R_01
							{
								OFFSET 0.133367 0.105498 0.177239
								CHANNELS 6 Xposition Yposition Zposition Xrotation Yrotation Zrotation
								JOINT BN_Ear_R_02
								{
									OFFSET -0.074872 -0.240787 0.040107
									CHANNELS 6 Xposition Yposition Zposition Xrotation Yrotation Zrotation
									End Site
									{
										OFFSET 0.093503 -0.082870 -0.222671
									}
								}
							}
							JOINT BN_Nose_01
							{
								OFFSET 0.471272 -0.208616 0.012699
								CHANNELS 6 Xposition Yposition Zposition Xrotation Yrotation Zrotation
								JOINT BN_Nose_02
								{
									OFFSET 0.076379 -0.339505 0.013347
									CHANNELS 6 Xposition Yposition Zposition Xrotation Yrotation Zrotation
									JOINT BN_Nose_03
									{
										OFFSET -0.035108 -0.320643 -0.000054
										CHANNELS 6 Xposition Yposition Zposition Xrotation Yrotation Zrotation
										JOINT BN_Nose_04
										{
											OFFSET -0.120659 -0.262204 -0.017643
											CHANNELS 6 Xposition Yposition Zposition Xrotation Yrotation Zrotation
											JOINT BN_Nose_05
											{
												OFFSET -0.238823 -0.158587 -0.019394
												CHANNELS 6 Xposition Yposition Zposition Xrotation Yrotation Zrotation
												JOINT BN_Nose_06
												{
													OFFSET -0.151660 0.098344 -0.011572
													CHANNELS 6 Xposition Yposition Zposition Xrotation Yrotation Zrotation
													End Site
													{
														OFFSET -0.170805 -0.059338 -0.010550
													}
												}
											}
										}
									}
								}
							}
						}
						JOINT Bip01_R_Clavicle
						{
							OFFSET -0.389642 -0.069071 0.270815
							CHANNELS 6 Xposition Yposition Zposition Xrotation Yrotation Zrotation
							JOINT Bip01_R_UpperArm
							{
								OFFSET 0.297928 -0.399194 0.055021
								CHANNELS 6 Xposition Yposition Zposition Xrotation Yrotation Zrotation
								JOINT Bip01_R_Forearm
								{
									OFFSET -0.175741 -0.570802 0.016792
									CHANNELS 6 Xposition Yposition Zposition Xrotation Yrotation Zrotation
									JOINT Bip01_R_Hand
									{
										OFFSET 0.111534 -0.507633 -0.007184
										CHANNELS 6 Xposition Yposition Zposition Xrotation Yrotation Zrotation
										End Site
										{
											OFFSET -0.022081 0.004104 -0.519305
										}
									}
								}
							}
						}
						JOINT Bip01_L_Clavicle
						{
							OFFSET -0.383456 -0.067190 -0.279962
							CHANNELS 6 Xposition Yposition Zposition Xrotation Yrotation Zrotation
							JOINT Bip01_L_UpperArm
							{
								OFFSET 0.318955 -0.382331 -0.056872
								CHANNELS 6 Xposition Yposition Zposition Xrotation Yrotation Zrotation
								JOINT Bip01_L_Forearm
								{
									OFFSET -0.115344 -0.586063 0.014381
									CHANNELS 6 Xposition Yposition Zposition Xrotation Yrotation Zrotation
									JOINT Bip01_L_Hand
									{
										OFFSET 0.091957 -0.510185 0.037926
										CHANNELS 6 Xposition Yposition Zposition Xrotation Yrotation Zrotation
										End Site
										{
											OFFSET -0.022870 -0.010498 0.519181
										}
									}
								}
							}
						}
					}
				}
			}
		}
	}
}
MOTION
Frames: 4
Frame Time: 0.033333
-0.638470 1.435053 0.000000 0.000000 0.000013 -0.000013 0.000000 0.000000 0.000000 0.000004 -0.000001 -0.000000 -0.251827 0.158051 0.002214 -0.000000 0.000000 -0.000014 -0.055252 -0.292919 0.029759 -0.000002 -0.000000 -0.000003 -0.063462 -0.295802 -0.009279 0.000002 -0.000001 0.000005 -0.122776 -0.229376 -0.051218 0.000003 -0.000002 0.000004 0.231004 0.014429 0.000014 0.000000 0.000000 0.000000 -0.228734 -0.014440 0.259823 0.000001 -0.000001 -0.000019 0.149708 -0.688047 0.023072 -0.000001 0.000001 0.000004 -0.223912 -0.555148 -0.049855 -0.000001 -0.000002 0.000006 0.205156 -0.190076 0.052833 0.000000 0.000007 -0.000001 -0.233275 -0.014388 -0.259860 -0.000000 0.000002 -0.000000 0.103196 -0.696667 -0.018948 -0.000001 -0.000001 0.000000 -0.245133 -0.546127 0.049664 0.000002 -0.000002 0.000006 0.205140 -0.190099 -0.052814 -0.000000 0.000008 -0.000003 0.419549 0.010961 -0.013086 -0.000000 0.000000 -0.000000 0.408347 0.028529 -0.012770 -0.000000 0.000000 -0.000003 0.338811 0.285813 0.004795 0.000000 -0.000000 -0.000002 0.358737 0.023694 0.007412 0.000000 0.000000 -0.000005 0.459189 -0.112929 -0.207698 0.000003 0.000003 -0.000004 0.447721 -0.112097 0.231818 0.000002 -0.000003 -0.000003 0.142448 0.104847 -0.170427 -0.000011 -0.000001 -0.000032 -0.083690 -0.238753 -0.034438 -0.000002 0.000001 -0.000003 -0.020845 -0.180430 -0.000206 0.000002 -0.000001 -0.000009 0.133367 0.105498 0.177239 0.000006 -0.000010 0.000006 -0.074872 -0.240787 0.040107 -0.000003 0.000000 0.000004 0.471273 -0.208616 0.012699 0.000003 -0.000011 -0.000002 0.076379 -0.339505 0.013347 0.000000 -0.000000 0.000001 -0.035109 -0.320642 -0.000054 -0.000000 0.000000 0.000004 -0.120659 -0.262204 -0.017643 0.000000 -0.000001 -0.000002 -0.238823 -0.158587 -0.019394 0.000001 0.000000 0.000024 -0.151661 0.098345 -0.011572 0.000001 -0.000001 0.000005 -0.389642 -0.069071 0.270815 -0.000004 0.000005 0.000003 0.297928 -0.399194 0.055021 0.000002 -0.000000 -0.000008 -0.175740 -0.570802 0.016792 -0.000000 0.000000 -0.000001 0.111534 -0.507633 -0.007184 0.000000 0.000004 -0.000004 -0.383456 -0.067190 -0.279962 0.000016 -0.000016 0.000001 0.318955 -0.382331 -0.056872 0.000005 0.000023 -0.000016 -0.115344 -0.586063 0.014381 0.000001 0.000001 0.000000 0.091957 -0.510185 0.037926 0.000001 0.000002 0.000001 
-0.638470 1.435051 -0.000613 0.000000 0.000013 -0.000013 -0.000000 0.000000 -0.000000 0.003474 0.110886 0.127434 -0.251828 0.158051 0.002214 -0.001400 -0.007840 -0.080979 -0.055252 -0.292919 0.029759 -0.059544 0.019357 0.050592 -0.063462 -0.295802 -0.009279 -0.041698 0.008202 0.086449 -0.122776 -0.229376 -0.051218 -0.090153 -0.061701 -0.394887 0.231035 0.013887 0.000498 -0.005338 -0.154079 -0.167182 -0.227996 -0.014599 0.259984 0.000757 -0.001386 -0.000518 0.149708 -0.688047 0.023072 -0.000001 0.000002 -0.000003 -0.223912 -0.555148 -0.049855 -0.001076 0.000526 -0.000929 0.205156 -0.190076 0.052833 0.000000 0.000007 -0.000001 -0.233981 -0.014528 -0.259685 -0.009763 0.030036 0.067872 0.103196 -0.696667 -0.018948 -0.000003 -0.000001 -0.000014 -0.245133 -0.546127 0.049664 0.000417 -0.000219 -0.000272 0.205140 -0.190099 -0.052814 -0.000000 0.000009 -0.000003 0.419549 0.010961 -0.013086 0.017891 -0.123928 0.067248 0.408347 0.028529 -0.012770 -0.015134 0.059991 -0.312547 0.338811 0.285814 0.004795 -0.002014 0.010432 0.036277 0.358737 0.023693 0.007412 -0.105486 0.018514 -0.169868 0.459189 -0.112929 -0.207698 0.122348 -0.052183 0.105120 0.447721 -0.112099 0.231817 -0.119360 0.049074 0.091993 0.142448 0.104847 -0.170427 -1.242185 -2.895690 -1.013596 -0.083690 -0.238753 -0.034438 -0.033047 -0.387526 0.184043 -0.020845 -0.180430 -0.000206 -0.006742 0.000985 0.208183 0.133367 0.105498 0.177239 0.847787 2.699031 -0.632015 -0.074872 -0.240787 0.040107 -0.248003 -0.005950 0.312297 0.471273 -0.208615 0.012699 -0.082534 0.092486 0.220831 0.076379 -0.339505 0.013347 -0.010255 -0.005815 0.204147 -0.035109 -0.320643 -0.000054 -0.021616 -0.027703 0.004457 -0.120659 -0.262204 -0.017643 -0.016697 0.014099 0.128894 -0.238823 -0.158587 -0.019394 -0.045121 -0.014075 0.607443 -0.151660 0.098345 -0.011572 -0.065018 0.020820 0.774697 -0.389859 -0.068587 0.270620 -0.096581 -0.033634 0.080068 0.297928 -0.399194 0.055021 0.186705 0.092277 0.052549 -0.175740 -0.570802 0.016792 0.016963 0.000851 0.205419 0.111534 -0.507633 -0.007184 -0.113046 0.007606 -0.124830 -0.383408 -0.066652 -0.280154 0.049983 -0.083957 0.428262 0.318955 -0.382331 -0.056872 -0.030264 0.169494 -0.003265 -0.115344 -0.586063 0.014381 0.110447 -0.043188 -0.838597 0.091957 -0.510185 0.037926 -0.154923 0.034124 0.706525 
-0.638470 1.435050 -0.001209 0.000000 0.000013 -0.000013 -0.000000 0.000000 -0.000000 0.010110 0.227693 0.257802 -0.251828 0.158051 0.002214 -0.005446 -0.030156 -0.311648 -0.055252 -0.292919 0.029759 -0.260029 0.081506 0.216968 -0.063462 -0.295802 -0.009279 -0.162121 0.038246 0.339368 -0.122777 -0.229376 -0.051218 -0.172294 -0.119744 -0.759175 0.231065 0.013359 0.000969 -0.007378 -0.316625 -0.336277 -0.227279 -0.014755 0.260141 -0.051418 0.082349 0.025491 0.149708 -0.688047 0.023072 -0.000001 0.000002 0.000002 -0.223912 -0.555148 -0.049855 0.038454 -0.018877 0.033417 0.205156 -0.190076 0.052833 0.000000 0.000010 -0.000001 -0.234692 -0.014672 -0.259508 -0.020373 0.053043 0.109867 0.103196 -0.696667 -0.018948 -0.000001 -0.000002 -0.000003 -0.245133 -0.546127 0.049664 0.041735 -0.021888 -0.028966 0.205140 -0.190099 -0.052814 -0.000000 0.000008 -0.000003 0.419549 0.010961 -0.013086 0.041997 -0.243817 0.132787 0.408347 0.028529 -0.012770 -0.029893 0.120460 -0.617150 0.338811 0.285814 0.004795 -0.012914 0.049833 0.140636 0.358737 0.023694 0.007412 -0.222188 0.042329 -0.358507 0.459189 -0.112929 -0.207698 0.237287 -0.100986 0.203934 0.447721 -0.112098 0.231817 -0.243207 0.099746 0.187509 0.142448 0.104847 -0.170427 -2.709907 -6.030928 -2.215318 -0.083690 -0.238753 -0.034438 -0.079685 -1.056487 0.495722 -0.020845 -0.180430 -0.000206 -0.013511 0.001949 0.416009 0.133367 0.105498 0.177239 1.864659 5.634087 -1.394368 -0.074872 -0.240788 0.040107 -0.475247 -0.012604 0.597819 0.471273 -0.208616 0.012699 -0.030516 0.059056 0.851889 0.076379 -0.339505 0.013347 -0.040444 -0.017197 0.785134 -0.035108 -0.320642 -0.000054 -0.125411 -0.157098 0.030989 -0.120659 -0.262204 -0.017643 -0.067840 0.053926 0.511863 -0.238823 -0.158587 -0.019394 -0.161729 -0.052002 2.247466 -0.151660 0.098345 -0.011572 -0.174026 0.053106 2.062797 -0.390091 -0.068091 0.270410 -0.189771 -0.070603 0.121128 0.297928 -0.399194 0.055021 0.388718 0.189811 0.117633 -0.175740 -0.570801 0.016792 0.038273 0.002007 0.463541 0.111534 -0.507633 -0.007184 -0.235231 0.016111 -0.259757 -0.383355 -0.066088 -0.280360 0.114370 -0.176942 0.880188 0.318955 -0.382331 -0.056872 -0.065858 0.344083 0.017740 -0.115344 -0.586063 0.014381 0.236812 -0.094907 -1.804028 0.091957 -0.510185 0.037926 -0.306612 0.065600 1.396623 
-0.638470 1.435048 -0.001835 0.000000 0.000013 -0.000013 -0.000000 0.000000 -0.000000 0.015883 0.360879 0.398476 -0.251828 0.158051 0.002214 -0.012171 -0.064789 -0.670824 -0.055252 -0.292919 0.029759 -0.564375 0.176508 0.475216 -0.063462 -0.295802 -0.009279 -0.361188 0.084914 0.738040 -0.122777 -0.229376 -0.051218 -0.451157 -0.230206 -1.800548 0.231094 0.012815 0.001470 -0.013960 -0.485022 -0.508969 -0.226497 -0.014906 0.260305 -0.079076 0.117762 0.032966 0.149708 -0.688047 0.023072 -0.000002 0.000000 0.000000 -0.223912 -0.555148 -0.049855 0.056788 -0.028012 0.050704 0.205156 -0.190076 0.052833 0.000000 0.000009 -0.000001 -0.235462 -0.014821 -0.259318 -0.044912 0.098664 0.182039 0.103196 -0.696667 -0.018948 -0.000001 -0.000001 0.000000 -0.245133 -0.546127 0.049664 0.047781 -0.024940 -0.032128 0.205140 -0.190099 -0.052814 -0.000000 0.000009 -0.000003 0.419549 0.010961 -0.013086 0.062719 -0.366816 0.195793 0.408347 0.028529 -0.012770 -0.045048 0.184856 -0.927666 0.338811 0.285814 0.004795 -0.025721 0.088076 0.235425 0.358737 0.023694 0.007412 -0.335131 0.074167 -0.544782 0.459189 -0.112929 -0.207698 0.355955 -0.151102 0.305976 0.447721 -0.112099 0.231817 -0.368050 0.150588 0.283835 0.142448 0.104846 -0.170427 -4.423888 -9.397987 -3.629829 -0.083690 -0.238753 -0.034438 -0.142277 -2.155414 1.002149 -0.020845 -0.180430 -0.000206 -0.020060 0.002858 0.617430 0.133367 0.105497 0.177239 3.068596 8.808596 -2.313448 -0.074872 -0.240787 0.040107 -1.114915 -0.037058 1.422702 0.471272 -0.208616 0.012699 -0.101976 0.158136 1.820282 0.076379 -0.339505 0.013347 -0.084341 -0.035432 1.707740 -0.035108 -0.320642 -0.000054 -0.277608 -0.344537 0.085847 -0.120659 -0.262204 -0.017643 -0.144324 0.112182 1.075883 -0.238823 -0.158587 -0.019394 -0.326617 -0.108199 4.784658 -0.151660 0.098345 -0.011572 -0.348531 0.099201 4.106963 -0.390369 -0.067527 0.270151 -0.288473 -0.114501 0.139436 0.297928 -0.399194 0.055021 0.591275 0.288340 0.188264 -0.175740 -0.570802 0.016792 0.063213 0.003480 0.765713 0.111534 -0.507633 -0.007184 -0.348269 0.024265 -0.384571 -0.383284 -0.065417 -0.280614 0.179437 -0.274813 1.337097 0.318955 -0.382331 -0.056872 -0.105295 0.530048 0.072661 -0.115344 -0.586063 0.014381 0.376225 -0.154884 -2.876988 0.091957 -0.510185 0.037926 -0.460507 0.095586 2.095068 
